<?xml version="1.0" encoding="UTF-8" standalone="no"?>
<svg
   xmlns:dc="http://purl.org/dc/elements/1.1/"
   xmlns:cc="http://creativecommons.org/ns#"
   xmlns:rdf="http://www.w3.org/1999/02/22-rdf-syntax-ns#"
   xmlns:svg="http://www.w3.org/2000/svg"
   xmlns="http://www.w3.org/2000/svg"
   xmlns:sodipodi="http://sodipodi.sourceforge.net/DTD/sodipodi-0.dtd"
   xmlns:inkscape="http://www.inkscape.org/namespaces/inkscape"
   width="36mm"
   height="36mm"
   viewBox="-18 -18 36 36"
   version="1.1"
   id="svg6"
   sodipodi:docname="blankCog.svg"
   inkscape:version="0.92.3 (2405546, 2018-03-11)">
  <metadata
     id="metadata12">
    <rdf:RDF>
      <cc:Work
         rdf:about="">
        <dc:format>image/svg+xml</dc:format>
        <dc:type
           rdf:resource="http://purl.org/dc/dcmitype/StillImage" />
        <dc:title>OpenSCAD Model</dc:title>
      </cc:Work>
    </rdf:RDF>
  </metadata>
  <defs
     id="defs10" />
  <sodipodi:namedview
     pagecolor="#ffffff"
     bordercolor="#666666"
     borderopacity="1"
     objecttolerance="10"
     gridtolerance="10"
     guidetolerance="10"
     inkscape:pageopacity="0"
     inkscape:pageshadow="2"
     inkscape:window-width="1920"
     inkscape:window-height="1017"
     id="namedview8"
     showgrid="false"
     showguides="true"
     inkscape:guide-bbox="true"
     inkscape:snap-center="true"
     inkscape:object-paths="true"
     inkscape:lockguides="false"
     inkscape:snap-smooth-nodes="true"
     inkscape:snap-intersection-paths="true"
     inkscape:zoom="19.623523"
     inkscape:cx="112.51608"
     inkscape:cy="106.35784"
     inkscape:window-x="-8"
     inkscape:window-y="-8"
     inkscape:window-maximized="1"
     inkscape:current-layer="svg6">
    <sodipodi:guide
       position="18.0357,17.823001"
       orientation="1,0"
       id="guide4526"
       inkscape:locked="false" />
    <sodipodi:guide
       position="18.0357,17.823001"
       orientation="0,1"
       id="guide4528"
       inkscape:locked="false" />
    <sodipodi:guide
       position="18.0357,17.823001"
       orientation="-0.25881905,0.96592583"
       id="guide4532"
       inkscape:locked="false"
       inkscape:label=""
       inkscape:color="rgb(0,0,255)" />
    <sodipodi:guide
       position="18.0357,17.823001"
       orientation="-0.5,0.8660254"
       id="guide4534"
       inkscape:locked="false"
       inkscape:label=""
       inkscape:color="rgb(0,0,255)" />
    <sodipodi:guide
       position="33.621926,26.821716"
       orientation="0.8660254,0.5"
       id="guide4538"
       inkscape:locked="false"
       inkscape:label=""
       inkscape:color="rgb(0,0,255)" />
    <sodipodi:guide
       position="18.0357,35.820426"
       orientation="0,1"
       id="guide4542"
       inkscape:locked="false" />
  </sodipodi:namedview>
  <title
     id="title2">OpenSCAD Model</title>
  <path
     d=" M 4.51476,17.6108 L 4.63461,17.5796 L 4.75424,17.5475 L 4.87366,17.5146 L 5.20262,17.3531 L 5.2218,17.3385  L 5.45131,17.084 L 5.47603,17.0425 L 5.58632,16.7432 L 5.59763,16.6717 L 5.58951,16.3768 L 5.53711,15.6667  L 5.6295,14.9606 L 5.86287,14.2879 L 6.22755,13.6764 L 6.70848,13.1513 L 7.28571,12.7344 L 7.93538,12.4429  L 8.63058,12.289 L 9.34256,12.2789 L 10.0418,12.4132 L 10.6995,12.6862 L 11.2882,13.0866 L 11.6072,13.2671  L 11.6301,13.2746 L 11.9698,13.3205 L 12.0179,13.3175 L 12.3272,13.2397 L 12.3927,13.2087 L 12.6316,13.0356  L 12.7198,12.9486 L 12.8073,12.8611 L 12.8943,12.7729 L 13.0985,12.4685 L 13.1077,12.4462 L 13.1792,12.1111  L 13.1799,12.0628 L 13.1258,11.7485 L 13.0998,11.6809 L 12.9453,11.4295 L 12.5449,10.8407 L 12.2719,10.1831  L 12.1376,9.48384 L 12.1477,8.77187 L 12.3016,8.07666 L 12.5931,7.427 L 13.01,6.84976 L 13.5351,6.36885  L 14.1466,6.00415 L 14.8194,5.77078 L 15.5254,5.67839 L 16.2355,5.7308 L 16.602,5.7276 L 16.6256,5.72269  L 16.9427,5.59261 L 16.9829,5.56592 L 17.2119,5.34392 L 17.253,5.28435 L 17.3734,5.01494 L 17.4062,4.89552  L 17.4383,4.77589 L 17.4695,4.65604 L 17.4941,4.29039 L 17.491,4.26645 L 17.3854,3.94043 L 17.3618,3.89828  L 17.1578,3.65315 L 17.1015,3.6076 L 16.842,3.46715 L 16.2009,3.15749 L 15.6356,2.72446 L 15.1697,2.18599  L 14.8224,1.56438 L 14.6081,0.885345 L 14.5357,0.177002 L 14.6081,-0.531342 L 14.8224,-1.21039 L 15.1697,-1.832  L 15.6356,-2.37045 L 16.2009,-2.80348 L 16.842,-3.11316 L 17.1578,-3.29915 L 17.1758,-3.31523 L 17.3854,-3.58643  L 17.4069,-3.62964 L 17.4941,-3.93639 L 17.5,-4.00854 L 17.4695,-4.30203 L 17.4383,-4.42189 L 17.4062,-4.54153  L 17.3734,-4.66095 L 17.2119,-4.98991 L 17.1972,-5.00909 L 16.9427,-5.2386 L 16.9012,-5.26331 L 16.602,-5.37361  L 16.5305,-5.3849 L 16.2355,-5.3768 L 15.5254,-5.32439 L 14.8194,-5.41678 L 14.1466,-5.65016 L 13.5351,-6.01485  L 13.01,-6.49576 L 12.5931,-7.073 L 12.3016,-7.72266 L 12.1477,-8.41786 L 12.1376,-9.12984 L 12.2719,-9.82912  L 12.5449,-10.4868 L 12.9453,-11.0755 L 13.1258,-11.3945 L 13.1334,-11.4174 L 13.1792,-11.757 L 13.1762,-11.8052  L 13.0985,-12.1145 L 13.0674,-12.1799 L 12.8943,-12.4189 L 12.8073,-12.507 L 12.7198,-12.5946 L 12.6316,-12.6816  L 12.3272,-12.8857 L 12.3049,-12.895 L 11.9698,-12.9665 L 11.9215,-12.9672 L 11.6072,-12.9131 L 11.5396,-12.8871  L 11.2882,-12.7326 L 10.6995,-12.3322 L 10.0418,-12.0592 L 9.34256,-11.9249 L 8.63058,-11.935 L 7.93538,-12.0889  L 7.28571,-12.3804 L 6.70848,-12.7973 L 6.22755,-13.3224 L 5.86287,-13.9339 L 5.6295,-14.6066 L 5.53711,-15.3127  L 5.58951,-16.0228 L 5.58632,-16.3893 L 5.58141,-16.4129 L 5.45131,-16.7299 L 5.42464,-16.7702 L 5.20262,-16.9991  L 5.14305,-17.0403 L 4.87366,-17.1606 L 4.75424,-17.1935 L 4.63461,-17.2256 L 4.51476,-17.2568 L 4.14909,-17.2814  L 4.12517,-17.2783 L 3.79913,-17.1727 L 3.757,-17.1491 L 3.51187,-16.9451 L 3.46632,-16.8888 L 3.32587,-16.6293  L 3.0162,-15.9881 L 2.58318,-15.4229 L 2.04471,-14.957 L 1.4231,-14.6097 L 0.744064,-14.3954 L 0.0357056,-14.323  L -0.672623,-14.3954 L -1.35165,-14.6097 L -1.97327,-14.957 L -2.51173,-15.4229 L -2.94476,-15.9881 L -3.25443,-16.6293  L -3.44043,-16.9451 L -3.4565,-16.9631 L -3.72771,-17.1727 L -3.77092,-17.1941 L -4.07767,-17.2814 L -4.14983,-17.2873  L -4.44331,-17.2568 L -4.56317,-17.2256 L -4.68282,-17.1935 L -4.80223,-17.1606 L -5.1312,-16.9991 L -5.15036,-16.9845  L -5.37988,-16.7299 L -5.40459,-16.6885 L -5.51488,-16.3893 L -5.52618,-16.3177 L -5.51808,-16.0228 L -5.46567,-15.3127  L -5.55806,-14.6066 L -5.79143,-13.9339 L -6.15613,-13.3224 L -6.63704,-12.7973 L -7.21428,-12.3804 L -7.86394,-12.0889  L -8.55914,-11.935 L -9.27112,-11.9249 L -9.9704,-12.0592 L -10.628,-12.3322 L -11.2168,-12.7326 L -11.5358,-12.9131  L -11.5587,-12.9207 L -11.8983,-12.9665 L -11.9465,-12.9635 L -12.2558,-12.8857 L -12.3212,-12.8547 L -12.5602,-12.6816  L -12.6483,-12.5946 L -12.7359,-12.507 L -12.8229,-12.4189 L -13.027,-12.1145 L -13.0363,-12.0922 L -13.1078,-11.757  L -13.1085,-11.7088 L -13.0544,-11.3945 L -13.0284,-11.3269 L -12.8739,-11.0755 L -12.4735,-10.4868 L -12.2005,-9.82912  L -12.0662,-9.12984 L -12.0763,-8.41786 L -12.2302,-7.72266 L -12.5216,-7.073 L -12.9385,-6.49576 L -13.4636,-6.01485  L -14.0752,-5.65016 L -14.7479,-5.41678 L -15.4539,-5.32439 L -16.1641,-5.3768 L -16.5305,-5.37361 L -16.5542,-5.36868  L -16.8712,-5.2386 L -16.9115,-5.21191 L -17.1404,-4.98991 L -17.1816,-4.93034 L -17.3019,-4.66095 L -17.3348,-4.54153  L -17.3669,-4.42189 L -17.3981,-4.30203 L -17.4227,-3.93639 L -17.4196,-3.91245 L -17.3139,-3.58643 L -17.2904,-3.54428  L -17.0864,-3.29915 L -17.0301,-3.2536 L -16.7706,-3.11316 L -16.1294,-2.80348 L -15.5642,-2.37045 L -15.0983,-1.832  L -14.751,-1.21039 L -14.5367,-0.531342 L -14.4643,0.177002 L -14.5367,0.885345 L -14.751,1.56438 L -15.0983,2.18599  L -15.5642,2.72446 L -16.1294,3.15749 L -16.7706,3.46715 L -17.0864,3.65315 L -17.1044,3.66922 L -17.3139,3.94043  L -17.3354,3.98364 L -17.4227,4.29039 L -17.4286,4.36255 L -17.3981,4.65604 L -17.3669,4.77589 L -17.3348,4.89552  L -17.3019,5.01494 L -17.1404,5.34392 L -17.1257,5.36308 L -16.8712,5.59261 L -16.8298,5.61731 L -16.5305,5.7276  L -16.459,5.73891 L -16.1641,5.7308 L -15.4539,5.67839 L -14.7479,5.77078 L -14.0752,6.00415 L -13.4636,6.36885  L -12.9385,6.84976 L -12.5216,7.427 L -12.2302,8.07666 L -12.0763,8.77187 L -12.0662,9.48384 L -12.2005,10.1831  L -12.4735,10.8407 L -12.8739,11.4295 L -13.0544,11.7485 L -13.0619,11.7714 L -13.1078,12.1111 L -13.1048,12.1592  L -13.027,12.4685 L -12.996,12.5339 L -12.8229,12.7729 L -12.7359,12.8611 L -12.6483,12.9486 L -12.5602,13.0356  L -12.2558,13.2397 L -12.2335,13.249 L -11.8983,13.3205 L -11.8501,13.3212 L -11.5358,13.2671 L -11.4682,13.2411  L -11.2168,13.0866 L -10.628,12.6862 L -9.9704,12.4132 L -9.27112,12.2789 L -8.55914,12.289 L -7.86394,12.4429  L -7.21428,12.7344 L -6.63704,13.1513 L -6.15613,13.6764 L -5.79143,14.2879 L -5.55806,14.9606 L -5.46567,15.6667  L -5.51808,16.3768 L -5.51488,16.7432 L -5.50996,16.7669 L -5.37988,17.084 L -5.3532,17.1242 L -5.1312,17.3531  L -5.07162,17.3943 L -4.80223,17.5146 L -4.68282,17.5475 L -4.56317,17.5796 L -4.44331,17.6108 L -4.07767,17.6354  L -4.05373,17.6323 L -3.72771,17.5266 L -3.68556,17.5031 L -3.44043,17.2991 L -3.39488,17.2428 L -3.25443,16.9833  L -2.94476,16.3421 L -2.51173,15.7769 L -1.97327,15.311 L -1.35165,14.9637 L -0.672623,14.7494 L 0.0357056,14.677  L 0.744064,14.7494 L 1.4231,14.9637 L 2.04471,15.311 L 2.58318,15.7769 L 3.0162,16.3421 L 3.32587,16.9833  L 3.51187,17.2991 L 3.52794,17.3171 L 3.79913,17.5266 L 3.84236,17.5481 L 4.14909,17.6354 L 4.22127,17.6413  z M -1.13901,9.10001 L -2.29364,8.87033 L -3.40843,8.49191 L -4.46428,7.97122 L -5.44313,7.31717 L -6.32823,6.54095  L -7.10446,5.65585 L -7.7585,4.677 L -8.27919,3.62114 L -8.65761,2.50636 L -8.88728,1.35173 L -8.96428,0.177002  L -8.88728,-0.997726 L -8.65761,-2.15237 L -8.27919,-3.26715 L -7.7585,-4.323 L -7.10446,-5.30185 L -6.32823,-6.18695  L -5.44313,-6.96318 L -4.46428,-7.61722 L -3.40843,-8.13791 L -2.29364,-8.51633 L -1.13901,-8.746 L 0.0357056,-8.823  L 1.21045,-8.746 L 2.36508,-8.51633 L 3.47986,-8.13791 L 4.53571,-7.61722 L 5.51457,-6.96318 L 6.39967,-6.18695  L 7.17589,-5.30185 L 7.82994,-4.323 L 8.35063,-3.26715 L 8.72905,-2.15237 L 8.95871,-0.997726 L 9.03571,0.177002  L 8.95871,1.35173 L 8.72905,2.50636 L 8.35063,3.62114 L 7.82994,4.677 L 7.17589,5.65585 L 6.39967,6.54095  L 5.51457,7.31717 L 4.53571,7.97122 L 3.47986,8.49191 L 2.36508,8.87033 L 1.21045,9.10001 L 0.0357056,9.177  z "
     stroke="black"
     fill="lightgray"
     stroke-width="0.5"
     id="path4"
     style="stroke-width:0.20000001;stroke-miterlimit:4;stroke-dasharray:none" />
  <circle
     style="opacity:1;vector-effect:none;fill:none;fill-opacity:1;stroke:#cccccc;stroke-width:0.20000002;stroke-linecap:butt;stroke-linejoin:miter;stroke-miterlimit:4;stroke-dasharray:none;stroke-dashoffset:0;stroke-opacity:1;paint-order:normal"
     id="path4530"
     cx="15.621925"
     cy="-8.8217154"
     r="3.4932508" />
  <circle
     style="opacity:1;vector-effect:none;fill:none;fill-opacity:1;stroke:#cccccc;stroke-width:0.19999999;stroke-linecap:butt;stroke-linejoin:miter;stroke-miterlimit:4;stroke-dasharray:none;stroke-dashoffset:0;stroke-opacity:1;paint-order:normal"
     id="path4536"
     cx="0.035700001"
     cy="0.17700002"
     r="17.997425" />
  <circle
     r="3.4000001"
     cy="-17.820425"
     cx="0.035700001"
     id="circle4540"
     style="opacity:1;vector-effect:none;fill:none;fill-opacity:1;stroke:#cccccc;stroke-width:0.2;stroke-linecap:butt;stroke-linejoin:miter;stroke-miterlimit:4;stroke-dasharray:none;stroke-dashoffset:0;stroke-opacity:1;paint-order:normal" />
</svg>
